<svg width="55" height="69" viewBox="0 0 55 69" fill="none" xmlns="http://www.w3.org/2000/svg">
<path d="M16.8007 0H25.9363V22.2959C25.9363 24.5957 24.7496 26.704 23.8281 28.1094C22.774 29.7172 21.1077 30.7819 19.2444 31.687C17.3917 32.5814 15.2569 33.0286 12.8399 33.0286C10.7423 33.0286 8.82577 32.6666 7.09023 31.9425C5.35469 31.2078 3.97051 30.0579 2.9377 28.4927C1.90489 26.9169 1.39381 24.8726 1.40446 22.3598H10.2845C10.3164 23.1796 10.4548 23.8717 10.6997 24.436C10.9553 25.0003 11.3066 25.4262 11.7538 25.7137C12.2117 25.9906 12.7654 26.129 13.4148 26.129C14.075 26.129 14.6287 25.9852 15.0759 25.6978C15.5337 25.4103 16.2151 25.0003 16.4494 24.436C16.7848 23.909 16.7901 23.2009 16.8007 22.3598V0Z" fill="#111827"/>
<path d="M15.3955 0H24.531V22.2959C24.531 24.5957 23.3443 26.704 22.4228 28.1094C21.3687 29.7172 19.7024 30.7819 17.8391 31.687C15.9864 32.5814 13.8516 33.0286 11.4346 33.0286C9.33705 33.0286 7.4205 32.6666 5.68496 31.9425C3.94941 31.2078 2.56524 30.0579 1.53243 28.4927C0.499619 26.9169 -0.0114611 24.8726 -0.000813591 22.3598H8.87921C8.91115 23.1796 9.04957 23.8717 9.29446 24.436C9.55 25.0003 9.90137 25.4262 10.3486 25.7137C10.8064 25.9906 11.3601 26.129 12.0096 26.129C12.6697 26.129 13.2234 25.9852 13.6706 25.6978C14.1284 25.4103 14.8099 25.0003 15.0441 24.436C15.3795 23.909 15.3848 23.2009 15.3955 22.3598V0Z" fill="#111827"/>
<path d="M28.0449 0H36.4777L40.6942 13.0006L44.9106 0L52.6407 0.0319542L45.6133 22.4237V33.0286H36.1264V22.4237L28.0449 0Z" fill="#111827"/>
<path d="M29.4502 0H37.883L42.0994 13.0006L46.3158 0L54.0459 0.0319542L47.0186 22.4237V33.0286H37.5317V22.4237L29.4502 0Z" fill="#111827"/>
<path d="M1.4043 35.8398H9.83712L14.0535 48.8405L18.27 35.8398L26 35.8718L18.9727 58.2635V68.8684H9.48576V58.2635L1.4043 35.8398Z" fill="#111827"/>
<path d="M2.80957 35.8398H11.2424L15.4588 48.8405L19.6752 35.8398L27.4053 35.8718L20.378 58.2635V68.8684H10.891V58.2635L2.80957 35.8398Z" fill="#111827"/>
<path d="M43.5048 35.8398H52.6404V58.1357C52.6404 60.4356 51.4537 62.5438 50.5322 63.9493C49.4781 65.557 47.8118 66.6218 45.9485 67.5268C44.0958 68.4212 41.961 68.8684 39.544 68.8684C37.4464 68.8684 35.5299 68.5064 33.7943 67.7824C32.0588 67.0477 30.6746 65.8978 29.6418 64.3326C28.609 62.7567 28.0979 60.7124 28.1086 58.1996H36.9886C37.0205 59.0195 37.1589 59.7116 37.4038 60.2759C37.6594 60.8402 38.0107 61.2661 38.4579 61.5536C38.9158 61.8304 39.4695 61.9688 40.119 61.9688C40.7791 61.9688 41.3328 61.8251 41.78 61.5376C42.2378 61.2501 42.9192 60.8402 43.1535 60.2759C43.4889 59.7488 43.4942 59.0408 43.5048 58.1996V35.8398Z" fill="#111827"/>
<path d="M42.0996 35.8398H51.2351V58.1357C51.2351 60.4356 50.0484 62.5438 49.1269 63.9493C48.0728 65.557 46.4065 66.6218 44.5432 67.5268C42.6905 68.4212 40.5557 68.8684 38.1387 68.8684C36.0412 68.8684 34.1246 68.5064 32.3891 67.7824C30.6535 67.0477 29.2693 65.8978 28.2365 64.3326C27.2037 62.7567 26.6926 60.7124 26.7033 58.1996H35.5833C35.6153 59.0195 35.7537 59.7116 35.9986 60.2759C36.2541 60.8402 36.6055 61.2661 37.0527 61.5536C37.5105 61.8304 38.0642 61.9688 38.7137 61.9688C39.3738 61.9688 39.9275 61.8251 40.3747 61.5376C40.8325 61.2501 41.514 60.8402 41.7482 60.2759C42.0836 59.7488 42.0889 59.0408 42.0996 58.1996V35.8398Z" fill="#111827"/>
</svg>
